<svg width="46" height="46" viewBox="0 0 46 46" fill="none" xmlns="http://www.w3.org/2000/svg">
<circle cx="23" cy="23" r="23" fill="white"/>
<path d="M23 0C10.2973 0 0 10.2973 0 23C0 35.7027 10.2973 46 23 46C35.7027 46 46 35.7027 46 23C46 10.2973 35.7027 0 23 0ZM17.3698 32.533H12.7123V17.5447H17.3698V32.533ZM15.0123 15.7047C13.5412 15.7047 12.5901 14.6625 12.5901 13.3735C12.5901 12.0582 13.57 11.0472 15.0722 11.0472C16.5744 11.0472 17.4944 12.0582 17.5231 13.3735C17.5231 14.6625 16.5744 15.7047 15.0123 15.7047ZM34.3802 32.533H29.7227V24.2267C29.7227 22.2932 29.0471 20.9803 27.3628 20.9803C26.0763 20.9803 25.312 21.8692 24.9742 22.7245C24.8496 23.0288 24.8184 23.46 24.8184 23.8889V32.5306H20.1585V22.3244C20.1585 20.4532 20.0986 18.8888 20.0364 17.5423H24.0829L24.2961 19.6243H24.3896C25.0029 18.6468 26.5051 17.2045 29.0183 17.2045C32.0826 17.2045 34.3802 19.2577 34.3802 23.6708V32.533Z" fill="#FF7A00"/>
</svg>
