<svg width="46" height="46" viewBox="0 0 46 46" fill="none" xmlns="http://www.w3.org/2000/svg">
<circle cx="23" cy="23" r="23" fill="white"/>
<path d="M23 0C10.2973 0 0 10.2973 0 23C0 35.7027 10.2973 46 23 46C35.7027 46 46 35.7027 46 23C46 10.2973 35.7027 0 23 0ZM28.4481 15.894H24.9909C24.5813 15.894 24.126 16.433 24.126 17.1494V19.6458H28.4505L27.7965 23.206H24.126V33.8939H20.0459V23.206H16.3444V19.6458H20.0459V17.5519C20.0459 14.5475 22.1303 12.1061 24.9909 12.1061H28.4481V15.894Z" fill="#FF7A00"/>
</svg>
