<svg width="189" height="48" viewBox="0 0 189 48" fill="none" xmlns="http://www.w3.org/2000/svg">
<path d="M50.5186 16.5371H14.9688V43.9395L0 32.4014V5H35.5498L50.5186 16.5371Z" fill="black"/>
<path d="M0.000976562 32.4619L35.5508 32.4619L35.5508 5.06055L50.5195 16.5986L50.5195 44H14.9697L0.000976562 32.4619Z" fill="#FF7A00"/>
<path d="M71.5755 23.736C71.5755 21.5173 72.0555 19.544 73.0155 17.816C73.9755 16.0667 75.3089 14.712 77.0155 13.752C78.7435 12.7707 80.6955 12.28 82.8715 12.28C85.5382 12.28 87.8209 12.984 89.7195 14.392C91.6182 15.8 92.8875 17.72 93.5275 20.152H87.5115C87.0635 19.2133 86.4235 18.4987 85.5915 18.008C84.7809 17.5173 83.8529 17.272 82.8075 17.272C81.1222 17.272 79.7569 17.8587 78.7115 19.032C77.6662 20.2053 77.1435 21.7733 77.1435 23.736C77.1435 25.6987 77.6662 27.2667 78.7115 28.44C79.7569 29.6133 81.1222 30.2 82.8075 30.2C83.8529 30.2 84.7809 29.9547 85.5915 29.464C86.4235 28.9733 87.0635 28.2587 87.5115 27.32H93.5275C92.8875 29.752 91.6182 31.672 89.7195 33.08C87.8209 34.4667 85.5382 35.16 82.8715 35.16C80.6955 35.16 78.7435 34.68 77.0155 33.72C75.3089 32.7387 73.9755 31.384 73.0155 29.656C72.0555 27.928 71.5755 25.9547 71.5755 23.736ZM95.7905 26.04C95.7905 24.2053 96.1319 22.5947 96.8145 21.208C97.5185 19.8213 98.4679 18.7547 99.6625 18.008C100.857 17.2613 102.191 16.888 103.663 16.888C104.921 16.888 106.02 17.144 106.959 17.656C107.919 18.168 108.655 18.84 109.167 19.672V17.144H114.639V35H109.167V32.472C108.633 33.304 107.887 33.976 106.927 34.488C105.988 35 104.889 35.256 103.631 35.256C102.18 35.256 100.857 34.8827 99.6625 34.136C98.4679 33.368 97.5185 32.2907 96.8145 30.904C96.1319 29.496 95.7905 27.8747 95.7905 26.04ZM109.167 26.072C109.167 24.7067 108.783 23.6293 108.015 22.84C107.268 22.0507 106.351 21.656 105.263 21.656C104.175 21.656 103.247 22.0507 102.479 22.84C101.732 23.608 101.359 24.6747 101.359 26.04C101.359 27.4053 101.732 28.4933 102.479 29.304C103.247 30.0933 104.175 30.488 105.263 30.488C106.351 30.488 107.268 30.0933 108.015 29.304C108.783 28.5147 109.167 27.4373 109.167 26.072ZM124.069 20.12C124.709 19.1387 125.509 18.3707 126.469 17.816C127.429 17.24 128.496 16.952 129.669 16.952V22.744H128.165C126.8 22.744 125.776 23.0427 125.093 23.64C124.411 24.216 124.069 25.24 124.069 26.712V35H118.597V17.144H124.069V20.12ZM149.117 25.784C149.117 26.296 149.085 26.8293 149.021 27.384H136.637C136.722 28.4933 137.074 29.3467 137.693 29.944C138.333 30.52 139.111 30.808 140.029 30.808C141.394 30.808 142.343 30.232 142.877 29.08H148.701C148.402 30.2533 147.858 31.3093 147.069 32.248C146.301 33.1867 145.33 33.9227 144.157 34.456C142.983 34.9893 141.671 35.256 140.221 35.256C138.471 35.256 136.914 34.8827 135.549 34.136C134.183 33.3893 133.117 32.3227 132.349 30.936C131.581 29.5493 131.197 27.928 131.197 26.072C131.197 24.216 131.57 22.5947 132.317 21.208C133.085 19.8213 134.151 18.7547 135.517 18.008C136.882 17.2613 138.45 16.888 140.221 16.888C141.949 16.888 143.485 17.2507 144.829 17.976C146.173 18.7013 147.218 19.736 147.965 21.08C148.733 22.424 149.117 23.992 149.117 25.784ZM143.517 24.344C143.517 23.4053 143.197 22.6587 142.557 22.104C141.917 21.5493 141.117 21.272 140.157 21.272C139.239 21.272 138.461 21.5387 137.821 22.072C137.202 22.6053 136.818 23.3627 136.669 24.344H143.517ZM160.132 35.256C158.382 35.256 156.804 34.8827 155.396 34.136C154.009 33.3893 152.91 32.3227 152.1 30.936C151.31 29.5493 150.916 27.928 150.916 26.072C150.916 24.2373 151.321 22.6267 152.132 21.24C152.942 19.832 154.052 18.7547 155.46 18.008C156.868 17.2613 158.446 16.888 160.196 16.888C161.945 16.888 163.524 17.2613 164.932 18.008C166.34 18.7547 167.449 19.832 168.26 21.24C169.07 22.6267 169.476 24.2373 169.476 26.072C169.476 27.9067 169.06 29.528 168.228 30.936C167.417 32.3227 166.297 33.3893 164.868 34.136C163.46 34.8827 161.881 35.256 160.132 35.256ZM160.132 30.52C161.177 30.52 162.062 30.136 162.788 29.368C163.534 28.6 163.908 27.5013 163.908 26.072C163.908 24.6427 163.545 23.544 162.82 22.776C162.116 22.008 161.241 21.624 160.196 21.624C159.129 21.624 158.244 22.008 157.54 22.776C156.836 23.5227 156.484 24.6213 156.484 26.072C156.484 27.5013 156.825 28.6 157.508 29.368C158.212 30.136 159.086 30.52 160.132 30.52ZM179.643 35.256C178.085 35.256 176.699 34.9893 175.483 34.456C174.267 33.9227 173.307 33.1973 172.603 32.28C171.899 31.3413 171.504 30.296 171.419 29.144H176.827C176.891 29.7627 177.179 30.264 177.691 30.648C178.203 31.032 178.832 31.224 179.579 31.224C180.261 31.224 180.784 31.096 181.147 30.84C181.531 30.5627 181.723 30.2107 181.723 29.784C181.723 29.272 181.456 28.8987 180.923 28.664C180.389 28.408 179.525 28.1307 178.331 27.832C177.051 27.5333 175.984 27.224 175.131 26.904C174.277 26.5627 173.541 26.04 172.923 25.336C172.304 24.6107 171.995 23.64 171.995 22.424C171.995 21.4 172.272 20.472 172.827 19.64C173.403 18.7867 174.235 18.1147 175.323 17.624C176.432 17.1333 177.744 16.888 179.259 16.888C181.499 16.888 183.259 17.4427 184.539 18.552C185.84 19.6613 186.587 21.1333 186.779 22.968H181.723C181.637 22.3493 181.36 21.8587 180.891 21.496C180.443 21.1333 179.845 20.952 179.099 20.952C178.459 20.952 177.968 21.08 177.627 21.336C177.285 21.5707 177.115 21.9013 177.115 22.328C177.115 22.84 177.381 23.224 177.915 23.48C178.469 23.736 179.323 23.992 180.475 24.248C181.797 24.5893 182.875 24.9307 183.707 25.272C184.539 25.592 185.264 26.1253 185.883 26.872C186.523 27.5973 186.853 28.5787 186.875 29.816C186.875 30.8613 186.576 31.8 185.979 32.632C185.403 33.4427 184.56 34.0827 183.451 34.552C182.363 35.0213 181.093 35.256 179.643 35.256Z" fill="black"/>
</svg>
